# xmcd CD database file
#
# Track frame offsets:
#	150
#	15153
#	28559
#	41072
#	56994
#	70136
#	84610
#	100024
#	117194
#	131249
#	150840
#	164515
#	180496
#	194735
#	208976
#	222421
#	233265
#	249018
#	267837
#	286141
#
# Disc length: 4002 seconds
#
# Revision: 1
# Processed by: cddbd v1.5.2PL0 Copyright (c) Steve Scherf et al.
# Submitted via: CDex 1.50Beta7
#
DISCID=110fa014
DTITLE=Truck Stop - 30 Jahre
DYEAR=2003
DGENRE=Country
TTITLE0=Easy Rider
TTITLE1=Take It Easy, Altes Haus
TTITLE2=Der Wilde, Wilde Westen
TTITLE3=Ich Möchte´ So Gern Dave Dudley Hör´n
TTITLE4=Die Frau Mit Dem Gurt
TTITLE5=Der Tramp
TTITLE6=Henry´s Farm
TTITLE7=Old Texas Town, Die Westernstadt
TTITLE8=Das Gibt´s Doch Nur In Dallas
TTITLE9=Nein Danke, Ich Rauch´ Nicht Mehr
TTITLE10=Hilly Billy Country Lilly
TTITLE11=Der Roadie Von Der Country Band
TTITLE12=Nashville Tennessee
TTITLE13=Happy Birthday
TTITLE14=Du Kannst Geh´n
TTITLE15=Osnabrück Hin Und Zurück
TTITLE16=Ich Rauch´ Zuviel
TTITLE17=Rock N´ Roll Hotel
TTITLE18=Sie Will Zurück Nach München
TTITLE19=Jetzt Ist Schluss
EXTD=YEAR: 2003
EXTT0=
EXTT1=
EXTT2=
EXTT3=
EXTT4=
EXTT5=
EXTT6=
EXTT7=
EXTT8=
EXTT9=
EXTT10=
EXTT11=
EXTT12=
EXTT13=
EXTT14=
EXTT15=
EXTT16=
EXTT17=
EXTT18=
EXTT19=
PLAYORDER=
